{
  "accessors": [
    {
      "bufferView": 2,
      "componentType": 5126,
      "count": 64,
      "max": [
        0.8028860092163086,
        5.303619861602783,
        2.4370200634002686
      ],
      "min": [
        -0.45882800221443176,
        4.041910171508789,
        0.15197700262069702
      ],
      "type": "VEC3"
    },
    {
      "bufferView": 2,
      "byteOffset": 768,
      "componentType": 5126,
      "count": 64,
      "type": "VEC3"
    },
    {
      "bufferView": 1,
      "componentType": 5126,
      "count": 64,
      "type": "VEC2"
    },
    {
      "bufferView": 0,
      "componentType": 5125,
      "count": 180,
      "type": "SCALAR"
    },
    {
      "bufferView": 2,
      "byteOffset": 1536,
      "componentType": 5126,
      "count": 132,
      "max": [
        6.359940052032471,
        3.960010051727295,
        2.751889944076538
      ],
      "min": [
        -5.546760082244873,
        3.860029935836792,
        2.1892499923706055
      ],
      "type": "VEC3"
    },
    {
      "bufferView": 2,
      "byteOffset": 3120,
      "componentType": 5126,
      "count": 132,
      "type": "VEC3"
    },
    {
      "bufferView": 1,
      "byteOffset": 512,
      "componentType": 5126,
      "count": 132,
      "type": "VEC2"
    },
    {
      "bufferView": 0,
      "byteOffset": 720,
      "componentType": 5125,
      "count": 270,
      "type": "SCALAR"
    },
    {
      "bufferView": 2,
      "byteOffset": 4704,
      "componentType": 5126,
      "count": 246,
      "max": [
        6.702640056610107,
        4.24193000793457,
        11.699999809265137
      ],
      "min": [
        -6.0238800048828125,
        3.8705999851226807,
        1.7749199867248535
      ],
      "type": "VEC3"
    },
    {
      "bufferView": 2,
      "byteOffset": 7656,
      "componentType": 5126,
      "count": 246,
      "type": "VEC3"
    },
    {
      "bufferView": 1,
      "byteOffset": 1568,
      "componentType": 5126,
      "count": 246,
      "type": "VEC2"
    },
    {
      "bufferView": 0,
      "byteOffset": 1800,
      "componentType": 5125,
      "count": 534,
      "type": "SCALAR"
    },
    {
      "bufferView": 2,
      "byteOffset": 10608,
      "componentType": 5126,
      "count": 256,
      "max": [
        6.381080150604248,
        3.9705801010131836,
        2.7730300426483154
      ],
      "min": [
        -5.567890167236328,
        3.8705999851226807,
        2.168109893798828
      ],
      "type": "VEC3"
    },
    {
      "bufferView": 2,
      "byteOffset": 13680,
      "componentType": 5126,
      "count": 256,
      "type": "VEC3"
    },
    {
      "bufferView": 1,
      "byteOffset": 3536,
      "componentType": 5126,
      "count": 256,
      "type": "VEC2"
    },
    {
      "bufferView": 0,
      "byteOffset": 3936,
      "componentType": 5125,
      "count": 504,
      "type": "SCALAR"
    },
    {
      "bufferView": 2,
      "byteOffset": 16752,
      "componentType": 5126,
      "count": 180,
      "max": [
        6.015659809112549,
        4.160510063171387,
        10.90470027923584
      ],
      "min": [
        -5.336900234222412,
        4.039700031280518,
        3.1894500255584717
      ],
      "type": "VEC3"
    },
    {
      "bufferView": 2,
      "byteOffset": 18912,
      "componentType": 5126,
      "count": 180,
      "type": "VEC3"
    },
    {
      "bufferView": 1,
      "byteOffset": 5584,
      "componentType": 5126,
      "count": 180,
      "type": "VEC2"
    },
    {
      "bufferView": 0,
      "byteOffset": 5952,
      "componentType": 5125,
      "count": 318,
      "type": "SCALAR"
    },
    {
      "bufferView": 2,
      "byteOffset": 21072,
      "componentType": 5126,
      "count": 1552,
      "max": [
        6.477129936218262,
        5.221409797668457,
        11.475099563598633
      ],
      "min": [
        -5.823659896850586,
        4.348740100860596,
        1.9804400205612183
      ],
      "type": "VEC3"
    },
    {
      "bufferView": 2,
      "byteOffset": 39696,
      "componentType": 5126,
      "count": 1552,
      "type": "VEC3"
    },
    {
      "bufferView": 1,
      "byteOffset": 7024,
      "componentType": 5126,
      "count": 1552,
      "type": "VEC2"
    },
    {
      "bufferView": 0,
      "byteOffset": 7224,
      "componentType": 5125,
      "count": 2388,
      "type": "SCALAR"
    },
    {
      "bufferView": 2,
      "byteOffset": 58320,
      "componentType": 5126,
      "count": 1078,
      "max": [
        6.75547981262207,
        4.4510498046875,
        11.752799987792969
      ],
      "min": [
        -6.076720237731934,
        3.98799991607666,
        1.724410057067871
      ],
      "type": "VEC3"
    },
    {
      "bufferView": 2,
      "byteOffset": 71256,
      "componentType": 5126,
      "count": 1078,
      "type": "VEC3"
    },
    {
      "bufferView": 1,
      "byteOffset": 19440,
      "componentType": 5126,
      "count": 1078,
      "type": "VEC2"
    },
    {
      "bufferView": 0,
      "byteOffset": 16776,
      "componentType": 5125,
      "count": 1836,
      "type": "SCALAR"
    },
    {
      "bufferView": 2,
      "byteOffset": 84192,
      "componentType": 5126,
      "count": 36,
      "max": [
        6.015659809112549,
        4.039700031280518,
        10.90470027923584
      ],
      "min": [
        -5.336900234222412,
        4.039700031280518,
        3.1894500255584717
      ],
      "type": "VEC3"
    },
    {
      "bufferView": 2,
      "byteOffset": 84624,
      "componentType": 5126,
      "count": 36,
      "type": "VEC3"
    },
    {
      "bufferView": 1,
      "byteOffset": 28064,
      "componentType": 5126,
      "count": 36,
      "type": "VEC2"
    },
    {
      "bufferView": 0,
      "byteOffset": 24120,
      "componentType": 5125,
      "count": 102,
      "type": "SCALAR"
    },
    {
      "bufferView": 2,
      "byteOffset": 85056,
      "componentType": 5126,
      "count": 1526,
      "max": [
        6.702640056610107,
        6.588520050048828,
        11.699999809265137
      ],
      "min": [
        -6.0238800048828125,
        2.7995400428771973,
        0.03329240158200264
      ],
      "type": "VEC3"
    },
    {
      "bufferView": 2,
      "byteOffset": 103368,
      "componentType": 5126,
      "count": 1526,
      "type": "VEC3"
    },
    {
      "bufferView": 1,
      "byteOffset": 28352,
      "componentType": 5126,
      "count": 1526,
      "type": "VEC2"
    },
    {
      "bufferView": 0,
      "byteOffset": 24528,
      "componentType": 5125,
      "count": 2670,
      "type": "SCALAR"
    },
    {
      "bufferView": 2,
      "byteOffset": 121680,
      "componentType": 5126,
      "count": 24,
      "max": [
        6.359940052032471,
        3.8815701007843018,
        2.751889944076538
      ],
      "min": [
        -5.546760082244873,
        3.860029935836792,
        2.1892499923706055
      ],
      "type": "VEC3"
    },
    {
      "bufferView": 2,
      "byteOffset": 121968,
      "componentType": 5126,
      "count": 24,
      "type": "VEC3"
    },
    {
      "bufferView": 1,
      "byteOffset": 40560,
      "componentType": 5126,
      "count": 24,
      "type": "VEC2"
    },
    {
      "bufferView": 0,
      "byteOffset": 35208,
      "componentType": 5125,
      "count": 60,
      "type": "SCALAR"
    },
    {
      "bufferView": 2,
      "byteOffset": 122256,
      "componentType": 5126,
      "count": 128,
      "max": [
        0.8028860092163086,
        5.303619861602783,
        2.4370200634002686
      ],
      "min": [
        -0.45882800221443176,
        4.041910171508789,
        0.15197700262069702
      ],
      "type": "VEC3"
    },
    {
      "bufferView": 2,
      "byteOffset": 123792,
      "componentType": 5126,
      "count": 128,
      "type": "VEC3"
    },
    {
      "bufferView": 1,
      "byteOffset": 40752,
      "componentType": 5126,
      "count": 128,
      "type": "VEC2"
    },
    {
      "bufferView": 0,
      "byteOffset": 35448,
      "componentType": 5125,
      "count": 192,
      "type": "SCALAR"
    },
    {
      "bufferView": 2,
      "byteOffset": 125328,
      "componentType": 5126,
      "count": 626,
      "max": [
        10.11709976196289,
        -1.8319200277328491,
        1.0884699821472168
      ],
      "min": [
        7.588079929351807,
        -5.626200199127197,
        0.03978009894490242
      ],
      "type": "VEC3"
    },
    {
      "bufferView": 2,
      "byteOffset": 132840,
      "componentType": 5126,
      "count": 626,
      "type": "VEC3"
    },
    {
      "bufferView": 1,
      "byteOffset": 41776,
      "componentType": 5126,
      "count": 626,
      "type": "VEC2"
    },
    {
      "bufferView": 0,
      "byteOffset": 36216,
      "componentType": 5125,
      "count": 3024,
      "type": "SCALAR"
    },
    {
      "bufferView": 2,
      "byteOffset": 140352,
      "componentType": 5126,
      "count": 4,
      "max": [
        6.091400146484375,
        4.039690017700195,
        10.900899887084961
      ],
      "min": [
        -5.251830101013184,
        4.039690017700195,
        3.19146990776062
      ],
      "type": "VEC3"
    },
    {
      "bufferView": 2,
      "byteOffset": 140400,
      "componentType": 5126,
      "count": 4,
      "type": "VEC3"
    },
    {
      "bufferView": 1,
      "byteOffset": 46784,
      "componentType": 5126,
      "count": 4,
      "type": "VEC2"
    },
    {
      "bufferView": 0,
      "byteOffset": 48312,
      "componentType": 5125,
      "count": 6,
      "type": "SCALAR"
    },
    {
      "bufferView": 2,
      "byteOffset": 140448,
      "componentType": 5126,
      "count": 3723,
      "max": [
        3.853149890899658,
        0.48458901047706604,
        0.6629040241241455
      ],
      "min": [
        -10.11709976196289,
        -6.588520050048828,
        2.8020198783451633e-07
      ],
      "type": "VEC3"
    },
    {
      "bufferView": 2,
      "byteOffset": 185124,
      "componentType": 5126,
      "count": 3723,
      "type": "VEC3"
    },
    {
      "bufferView": 1,
      "byteOffset": 46816,
      "componentType": 5126,
      "count": 3723,
      "type": "VEC2"
    },
    {
      "bufferView": 0,
      "byteOffset": 48336,
      "componentType": 5125,
      "count": 8955,
      "type": "SCALAR"
    }
  ],
  "asset": {
    "generator": "fab-model-conversion",
    "version": "2.0"
  },
  "bufferViews": [
    {
      "buffer": 0,
      "byteLength": 84156,
      "target": 34963
    },
    {
      "buffer": 0,
      "byteLength": 76600,
      "byteOffset": 84156,
      "byteStride": 8,
      "target": 34962
    },
    {
      "buffer": 0,
      "byteLength": 229800,
      "byteOffset": 160756,
      "byteStride": 12,
      "target": 34962
    }
  ],
  "buffers": [
    {
      "byteLength": 390556,
      "uri": "scene.bin"
    }
  ],
  "images": [
    {
      "uri": "textures/google.jpg_baseColor.jpeg"
    },
    {
      "uri": "textures/keyboard_baseColor.jpeg"
    }
  ],
  "materials": [
    {
      "doubleSided": true,
      "name": "material",
      "pbrMetallicRoughness": {
        "baseColorFactor": [
          0.0,
          0.6,
          0.6,
          1.0
        ],
        "metallicFactor": 0.0
      }
    },
    {
      "doubleSided": true,
      "name": "material_1",
      "pbrMetallicRoughness": {
        "baseColorFactor": [
          0.0,
          0.4,
          0.8,
          1.0
        ],
        "metallicFactor": 0.0
      }
    },
    {
      "doubleSided": true,
      "name": "material_2",
      "pbrMetallicRoughness": {
        "baseColorFactor": [
          1.0,
          1.0,
          0.0,
          1.0
        ],
        "metallicFactor": 0.0
      }
    },
    {
      "doubleSided": true,
      "name": "material_3",
      "pbrMetallicRoughness": {
        "baseColorFactor": [
          0.752941,
          0.752941,
          0.752941,
          1.0
        ],
        "metallicFactor": 0.0
      }
    },
    {
      "doubleSided": true,
      "name": "material_4",
      "pbrMetallicRoughness": {
        "baseColorFactor": [
          1.0,
          0.498039,
          1.0,
          1.0
        ],
        "metallicFactor": 0.0
      }
    },
    {
      "doubleSided": true,
      "name": "Color_005",
      "pbrMetallicRoughness": {
        "baseColorFactor": [
          0.447059,
          0.447059,
          0.447059,
          1.0
        ],
        "metallicFactor": 0.0
      }
    },
    {
      "doubleSided": true,
      "name": "Color_006",
      "pbrMetallicRoughness": {
        "baseColorFactor": [
          0.337255,
          0.337255,
          0.337255,
          1.0
        ],
        "metallicFactor": 0.0
      }
    },
    {
      "doubleSided": true,
      "name": "Color_I04",
      "pbrMetallicRoughness": {
        "baseColorFactor": [
          0.6,
          0.6,
          1.0,
          1.0
        ],
        "metallicFactor": 0.0
      }
    },
    {
      "doubleSided": true,
      "name": "Metal_Corrogated_Shiny",
      "pbrMetallicRoughness": {
        "baseColorFactor": [
          0.011750637479589597,
          0.011502149647362002,
          0.011502149647362002,
          1.0
        ],
        "metallicFactor": 0.4394825164620689,
        "roughnessFactor": 0.4267536739446339
      }
    },
    {
      "doubleSided": true,
      "name": "Metal_Corrogated_Shiny2",
      "pbrMetallicRoughness": {
        "baseColorFactor": [
          0.478431,
          0.478431,
          0.478431,
          1.0
        ],
        "roughnessFactor": 0.35987176914798535
      }
    },
    {
      "doubleSided": true,
      "name": "Metal_Corrogated_Shiny3",
      "pbrMetallicRoughness": {
        "baseColorFactor": [
          0.009615739678686761,
          0.009615739678686761,
          0.009615739678686761,
          1.0
        ],
        "metallicFactor": 0.22059628258212793,
        "roughnessFactor": 0.46323471292462404
      }
    },
    {
      "doubleSided": true,
      "name": "blackmouse2",
      "pbrMetallicRoughness": {
        "baseColorFactor": [
          0.01372674868590875,
          0.013936351748546757,
          0.014139134381343963,
          1.0
        ],
        "metallicFactor": 0.46380320911539563,
        "roughnessFactor": 0.4328338471079656
      }
    },
    {
      "doubleSided": true,
      "name": "google.jpg",
      "pbrMetallicRoughness": {
        "baseColorTexture": {
          "index": 0
        },
        "metallicFactor": 0.0
      }
    },
    {
      "doubleSided": true,
      "name": "keyboard",
      "pbrMetallicRoughness": {
        "baseColorTexture": {
          "index": 1
        },
        "metallicFactor": 0.4394825164620689,
        "roughnessFactor": 0.4267536739446339
      }
    }
  ],
  "meshes": [
    {
      "name": "Object_0",
      "primitives": [
        {
          "attributes": {
            "NORMAL": 1,
            "POSITION": 0,
            "TEXCOORD_0": 2
          },
          "indices": 3,
          "material": 0,
          "mode": 4
        }
      ]
    },
    {
      "name": "Object_1",
      "primitives": [
        {
          "attributes": {
            "NORMAL": 5,
            "POSITION": 4,
            "TEXCOORD_0": 6
          },
          "indices": 7,
          "material": 1,
          "mode": 4
        }
      ]
    },
    {
      "name": "Object_2",
      "primitives": [
        {
          "attributes": {
            "NORMAL": 9,
            "POSITION": 8,
            "TEXCOORD_0": 10
          },
          "indices": 11,
          "material": 2,
          "mode": 4
        }
      ]
    },
    {
      "name": "Object_3",
      "primitives": [
        {
          "attributes": {
            "NORMAL": 13,
            "POSITION": 12,
            "TEXCOORD_0": 14
          },
          "indices": 15,
          "material": 3,
          "mode": 4
        }
      ]
    },
    {
      "name": "Object_4",
      "primitives": [
        {
          "attributes": {
            "NORMAL": 17,
            "POSITION": 16,
            "TEXCOORD_0": 18
          },
          "indices": 19,
          "material": 4,
          "mode": 4
        }
      ]
    },
    {
      "name": "Object_5",
      "primitives": [
        {
          "attributes": {
            "NORMAL": 21,
            "POSITION": 20,
            "TEXCOORD_0": 22
          },
          "indices": 23,
          "material": 5,
          "mode": 4
        }
      ]
    },
    {
      "name": "Object_6",
      "primitives": [
        {
          "attributes": {
            "NORMAL": 25,
            "POSITION": 24,
            "TEXCOORD_0": 26
          },
          "indices": 27,
          "material": 6,
          "mode": 4
        }
      ]
    },
    {
      "name": "Object_7",
      "primitives": [
        {
          "attributes": {
            "NORMAL": 29,
            "POSITION": 28,
            "TEXCOORD_0": 30
          },
          "indices": 31,
          "material": 7,
          "mode": 4
        }
      ]
    },
    {
      "name": "Object_8",
      "primitives": [
        {
          "attributes": {
            "NORMAL": 33,
            "POSITION": 32,
            "TEXCOORD_0": 34
          },
          "indices": 35,
          "material": 8,
          "mode": 4
        }
      ]
    },
    {
      "name": "Object_9",
      "primitives": [
        {
          "attributes": {
            "NORMAL": 37,
            "POSITION": 36,
            "TEXCOORD_0": 38
          },
          "indices": 39,
          "material": 9,
          "mode": 4
        }
      ]
    },
    {
      "name": "Object_10",
      "primitives": [
        {
          "attributes": {
            "NORMAL": 41,
            "POSITION": 40,
            "TEXCOORD_0": 42
          },
          "indices": 43,
          "material": 10,
          "mode": 4
        }
      ]
    },
    {
      "name": "Object_11",
      "primitives": [
        {
          "attributes": {
            "NORMAL": 45,
            "POSITION": 44,
            "TEXCOORD_0": 46
          },
          "indices": 47,
          "material": 11,
          "mode": 4
        }
      ]
    },
    {
      "name": "Object_12",
      "primitives": [
        {
          "attributes": {
            "NORMAL": 49,
            "POSITION": 48,
            "TEXCOORD_0": 50
          },
          "indices": 51,
          "material": 12,
          "mode": 4
        }
      ]
    },
    {
      "name": "Object_13",
      "primitives": [
        {
          "attributes": {
            "NORMAL": 53,
            "POSITION": 52,
            "TEXCOORD_0": 54
          },
          "indices": 55,
          "material": 13,
          "mode": 4
        }
      ]
    }
  ],
  "nodes": [
    {
      "children": [
        1
      ],
      "matrix": [
        1.0,
        0.0,
        0.0,
        0.0,
        0.0,
        2.220446049250313e-16,
        -1.0,
        0.0,
        0.0,
        1.0,
        2.220446049250313e-16,
        0.0,
        0.0,
        0.0,
        0.0,
        1.0
      ],
      "name": "Sketchfab_model"
    },
    {
      "children": [
        2,
        3,
        4,
        5,
        6,
        7,
        8,
        9,
        10,
        11,
        12,
        13,
        14,
        15
      ],
      "name": "Comp.obj.cleaner.materialmerger.gles"
    },
    {
      "mesh": 0,
      "name": "Object_2"
    },
    {
      "mesh": 1,
      "name": "Object_3"
    },
    {
      "mesh": 2,
      "name": "Object_4"
    },
    {
      "mesh": 3,
      "name": "Object_5"
    },
    {
      "mesh": 4,
      "name": "Object_6"
    },
    {
      "mesh": 5,
      "name": "Object_7"
    },
    {
      "mesh": 6,
      "name": "Object_8"
    },
    {
      "mesh": 7,
      "name": "Object_9"
    },
    {
      "mesh": 8,
      "name": "Object_10"
    },
    {
      "mesh": 9,
      "name": "Object_11"
    },
    {
      "mesh": 10,
      "name": "Object_12"
    },
    {
      "mesh": 11,
      "name": "Object_13"
    },
    {
      "mesh": 12,
      "name": "Object_14"
    },
    {
      "mesh": 13,
      "name": "Object_15"
    }
  ],
  "samplers": [
    {
      "magFilter": 9729,
      "minFilter": 9987,
      "wrapS": 10497,
      "wrapT": 10497
    }
  ],
  "scene": 0,
  "scenes": [
    {
      "name": "Sketchfab_Scene",
      "nodes": [
        0
      ]
    }
  ],
  "textures": [
    {
      "sampler": 0,
      "source": 0
    },
    {
      "sampler": 0,
      "source": 1
    }
  ]
}
